Coordinates
version=1
nRows=26
nColumns=24
inDegrees=yes

Units are S.I. units (second, meters, Newtons, ...)
Angles are in degrees.

endheader
time	pelvis_tilt	pelvis_list	pelvis_rotation	pelvis_tx	pelvis_ty	pelvis_tz	hip_flexion_r	hip_adduction_r	hip_rotation_r	knee_angle_r	ankle_angle_r	subtalar_angle_r	mtp_angle_r	hip_flexion_l	hip_adduction_l	hip_rotation_l	knee_angle_l	ankle_angle_l	subtalar_angle_l	mtp_angle_l	lumbar_extension	lumbar_bending	lumbar_rotation
      6.94000000	      5.39330756	      1.20818651	     -2.04406971	      1.65882169	      0.75497910	     -0.15054992	     -0.45186610	      1.01176592	      7.87332958	     -4.86571240	     11.30593129	     -8.06011540	      0.00000000	      9.60052856	     -1.03712981	    -14.16448556	    -62.31911183	    -12.71641531	    -34.22730505	      0.00000000	    -23.92114719	     -1.87101458	     -9.11912271
      6.95000000	      5.23156664	      1.34137204	     -2.80715266	      1.66931240	      0.75547879	     -0.14908682	     -1.12544915	      0.90477563	      8.26565986	     -4.75924934	     11.81347351	     -7.95668981	      0.00000000	     11.42920152	     -1.01824977	    -15.07053417	    -61.74641249	    -10.86983103	    -34.03377069	      0.00000000	    -23.95692126	     -2.30960056	     -8.11085544
      6.96000000	      5.16005591	      1.44836967	     -3.51565717	      1.67972128	      0.75591081	     -0.14780135	     -1.92413847	      0.80381879	      8.66376838	     -4.59473968	     12.29428287	     -7.98070087	      0.00000000	     13.04566370	     -1.00630754	    -15.84763951	    -60.76024491	     -9.10028120	    -33.78386851	      0.00000000	    -24.12887187	     -2.69053530	     -7.17205864
      6.97000000	      5.08271917	      1.53400362	     -4.13182148	      1.69006193	      0.75616803	     -0.14672041	     -2.73823343	      0.71042913	      9.02543480	     -4.39235615	     12.74136385	     -8.09179763	      0.00000000	     14.56160320	     -0.98790683	    -16.46218808	    -59.38927505	     -7.26641252	    -33.29950758	      0.00000000	    -24.31617210	     -3.01110825	     -6.35081623
      6.98000000	      5.01668962	      1.58728562	     -4.65920747	      1.70036626	      0.75627491	     -0.14583558	     -3.57979654	      0.63689720	      9.33345083	     -4.17217154	     13.18354474	     -8.26945799	      0.00000000	     15.93541089	     -0.97004837	    -16.92844586	    -57.62494574	     -5.47493976	    -32.70338707	      0.00000000	    -24.53247218	     -3.26468211	     -5.64502564
      6.99000000	      4.95324488	      1.61989681	     -5.10048240	      1.71066186	      0.75623439	     -0.14514060	     -4.43271117	      0.57369911	      9.57490083	     -3.94977350	     13.62020059	     -8.46775952	      0.00000000	     17.15588050	     -0.93184330	    -17.26184769	    -55.45626999	     -3.85062415	    -32.12230414	      0.00000000	    -24.75756620	     -3.46444951	     -5.05634412
      7.00000000	      4.87966142	      1.61539389	     -5.46578853	      1.72097996	      0.75603187	     -0.14460807	     -5.27782155	      0.54473309	      9.76119818	     -3.74359574	     14.07260149	     -8.69023798	      0.00000000	     18.22060295	     -0.89533673	    -17.48308070	    -52.89341623	     -2.45087521	    -31.61203806	      0.00000000	    -24.96784303	     -3.59865593	     -4.56955210
      7.01000000	      4.76400605	      1.61790511	     -5.78301422	      1.73134928	      0.75565323	     -0.14421541	     -6.05508868	      0.50689260	      9.86792825	     -3.59327040	     14.60654902	     -8.84861113	      0.00000000	     19.13581443	     -0.79300164	    -17.59088055	    -49.89608667	     -1.54007823	    -31.42067528	      0.00000000	    -25.10672333	     -3.72582734	     -4.15913904
      7.02000000	      4.72473502	      1.50792759	     -6.03347255	      1.74182317	      0.75519795	     -0.14394296	     -6.96654143	      0.57577468	      9.92536710	     -3.39680247	     14.99497698	     -9.05254154	      0.00000000	     19.77239202	     -0.80451960	    -17.68033771	    -46.56027225	     -0.37839419	    -30.75523379	      0.00000000	    -25.32859695	     -3.70843885	     -3.82495302
      7.03000000	      4.58441213	      1.43413515	     -6.27350458	      1.75239229	      0.75449747	     -0.14376657	     -7.73298504	      0.61247768	      9.96707025	     -3.28049213	     15.52108299	     -9.22558769	      0.00000000	     20.29198210	     -0.71202173	    -17.66357930	    -42.77968743	      0.27689678	    -30.28424407	      0.00000000	    -25.38757459	     -3.72387091	     -3.54422748
      7.04000000	      4.51801397	      1.23237671	     -6.49414481	      1.76311731	      0.75370357	     -0.14363700	     -8.63355096	      0.76778563	      9.98926435	     -3.12346254	     15.97208866	     -9.38129214	      0.00000000	     20.51323615	     -0.74242435	    -17.63179216	    -38.68052810	      1.27914758	    -29.11872894	      0.00000000	    -25.50502944	     -3.60333982	     -3.27491921
      7.05000000	      4.46380292	      1.03640870	     -6.73187549	      1.77401660	      0.75277479	     -0.14357566	     -9.56289817	      0.89238998	      9.93659191	     -2.96093442	     16.44576513	     -9.46798259	      0.00000000	     20.45672864	     -0.67664253	    -17.43157699	    -34.13972816	      1.90878307	    -27.94650869	      0.00000000	    -25.58363644	     -3.49697499	     -2.96119128
      7.06000000	      4.38154409	      0.75081370	     -6.97263588	      1.78509704	      0.75161871	     -0.14352288	    -10.47061305	      1.10389518	      9.88245606	     -2.84248557	     16.98796284	     -9.44358432	      0.00000000	     20.21460055	     -0.68445642	    -17.09407139	    -29.33283584	      2.73396193	    -26.02161762	      0.00000000	    -25.58122714	     -3.30716759	     -2.67933461
      7.07000000	      4.39580192	      0.40435458	     -7.25130304	      1.79638667	      0.75038041	     -0.14351750	    -11.51314311	      1.33121339	      9.83437073	     -2.71786667	     17.48717079	     -9.35281281	      0.00000000	     19.59400799	     -0.65014222	    -16.33056922	    -24.16537201	      3.15037593	    -24.36332307	      0.00000000	    -25.64665208	     -3.07237415	     -2.30435927
      7.08000000	      4.41822533	     -0.01823281	     -7.51144293	      1.80793634	      0.74891126	     -0.14356429	    -12.61596221	      1.61114281	      9.80537635	     -2.57227027	     17.99816333	     -9.23957233	      0.00000000	     18.75678855	     -0.67101897	    -15.08411847	    -18.84890570	      3.33270273	    -22.66614665	      0.00000000	    -25.66137784	     -2.75666503	     -1.92947680
      7.09000000	      4.50235558	     -0.57323023	     -7.80063074	      1.81973267	      0.74725049	     -0.14359062	    -13.80488821	      1.98811423	      9.88483512	     -2.48095873	     18.52292315	     -9.03118891	      0.00000000	     17.69531567	     -0.89061515	    -13.39031315	    -13.59395051	      3.48136870	    -21.08353437	      0.00000000	    -25.70132078	     -2.32628325	     -1.48859383
      7.10000000	      4.65875837	     -1.17627203	     -8.13904288	      1.83178835	      0.74540787	     -0.14357799	    -15.01803460	      2.36836249	      9.89258245	     -2.54684536	     19.22691648	     -8.56868370	      0.00000000	     16.45619286	     -1.27746624	    -11.25143168	     -8.60472587	      3.37841802	    -20.08670343	      0.00000000	    -25.76929561	     -1.89681262	     -0.92770376
      7.11000000	      4.79743034	     -1.89317432	     -8.42024807	      1.84404739	      0.74332404	     -0.14363918	    -16.22539351	      2.85053474	      9.95882309	     -2.67880749	     19.95756916	     -7.93272990	      0.00000000	     15.33792411	     -1.95553285	     -8.77833878	     -4.31291817	      3.30235514	    -19.57058585	      0.00000000	    -25.78959042	     -1.32409930	     -0.39338479
      7.12000000	      4.94586556	     -2.52736163	     -8.66518720	      1.85645354	      0.74115176	     -0.14375470	    -17.41255157	      3.23210310	     10.21637909	     -2.88789785	     20.46542350	     -7.72159664	      0.00000000	     14.52415429	     -2.71512778	     -6.97166692	     -1.04625839	      3.89293133	    -18.31803826	      0.00000000	    -25.78614684	     -0.84683738	      0.12324346
      7.13000000	      5.06200088	     -3.02037643	     -8.91515327	      1.86895578	      0.73893093	     -0.14397324	    -18.43144348	      3.46174064	     10.61265977	     -3.33834127	     21.05941172	     -7.57711034	      0.00000000	     13.99925800	     -3.37813075	     -5.54118150	      1.30515465	      4.63840393	    -17.31213628	      0.00000000	    -25.71490046	     -0.51646770	      0.58066470
      7.14000000	      5.27701485	     -3.27980241	     -9.12199843	      1.88160064	      0.73686930	     -0.14437944	    -19.43195363	      3.43675164	     10.89250242	     -3.96999169	     21.58467006	     -7.44055241	      0.00000000	     13.58166618	     -3.73784770	     -4.47797179	      2.81895796	      5.40190426	    -16.57838299	      0.00000000	    -25.71596736	     -0.44090895	      0.89183873
      7.15000000	      5.56524969	     -3.27256234	     -9.30491089	      1.89439922	      0.73501323	     -0.14503260	    -20.22647155	      3.12854694	     10.41430239	     -5.03327450	     22.41717029	     -6.40135317	      0.00000000	     13.31332486	     -3.70823239	     -4.10149523	      3.47333234	      6.21390934	    -15.66260213	      0.00000000	    -25.74840109	     -0.63198322	      1.07676060
      7.16000000	      5.80541164	     -3.12155501	     -9.44174792	      1.90733722	      0.73320437	     -0.14591006	    -20.93392328	      2.70946678	     10.46853875	     -6.16995162	     22.75709008	     -6.41392112	      0.00000000	     13.18924717	     -3.44178862	     -3.61226688	      3.47586060	      6.57375014	    -15.75017161	      0.00000000	    -25.69097071	     -0.93116710	      1.16553290
      7.17000000	      6.08493250	     -2.84743952	     -9.52450413	      1.92044568	      0.73158017	     -0.14710196	    -21.31914096	      2.16459131	      9.47835041	     -7.91497813	     23.43342082	     -5.24817583	      0.00000000	     12.96062672	     -2.94918610	     -2.69821347	      3.12536910	      5.91180383	    -17.33170135	      0.00000000	    -25.65309704	     -1.31392565	      1.16690714
      7.18000000	      6.42372142	     -2.41631343	     -9.61678759	      1.93371401	      0.73024575	     -0.14848456	    -21.61117638	      1.44451289	      8.61781079	     -9.92422647	     23.67069711	     -4.48824028	      0.00000000	     12.67897459	     -2.20885765	     -2.10702379	      2.37012401	      4.78902562	    -19.10947051	      0.00000000	    -25.65027375	     -1.85696173	      1.11517509
      7.19000000	      6.70124295	     -1.88852943	     -9.63050428	      1.94707485	      0.72908684	     -0.15015120	    -21.55384990	      0.64980358	      7.45318985	    -12.42009532	     23.70174159	     -3.64567904	      0.00000000	     12.45672908	     -1.31670362	     -1.40949774	      1.32418824	      2.85964324	    -21.42869886	      0.00000000	    -25.56516942	     -2.43403503	      0.95118822
